<svg id="Capa_1" enable-background="new 0 0 512.001 512.001" height="512" viewBox="0 0 512.001 512.001" width="512" xmlns="http://www.w3.org/2000/svg"><g><path d="m431 256c0 118.833-96.157 215-215 215-119.1 0-216-96.45-216-215s96.9-215 216-215c118.833 0 215 96.157 215 215z" fill="#94dfda"/><path d="m431 256c0 118.833-96.157 215-215 215v-430c118.833 0 215 96.157 215 215z" fill="#61a7c5"/><path d="m497 137h-266c-8.284 0-15 6.716-15 15v208c0 8.284 6.716 15 15 15h266c8.284 0 15-6.716 15-15v-208c0-8.284-6.716-15-15-15z" fill="#ffe278"/><path d="m512 152v208c0 8.28-6.72 15-15 15h-131.15v-238h131.15c8.28 0 15 6.72 15 15z" fill="#ffb454"/><path d="m511.164 147.062c-2.101-6.025-7.783-10.062-14.164-10.062h-266c-6.411 0-12.113 4.074-14.19 10.139-2.078 6.065-.071 12.78 4.994 16.71l134 104c5.45 4.231 13.101 4.203 18.523-.102l132-104c4.997-3.966 6.938-10.66 4.837-16.685z" fill="#ffb454"/><path d="m506.33 163.75-132 104c-2.5 1.98-5.47 3.06-8.48 3.23v-133.98h131.15c6.38 0 12.06 4.04 14.16 10.06 2.1 6.03.16 12.72-4.83 16.69z" fill="#ff7d47"/><g fill="#dd5958"><path d="m152 199h-24c-8.284 0-15-6.716-15-15s6.716-15 15-15h24c8.284 0 15 6.716 15 15s-6.716 15-15 15z"/><path d="m144 327h-48c-8.284 0-15-6.716-15-15s6.716-15 15-15h48c8.284 0 15 6.716 15 15s-6.716 15-15 15z"/><path d="m247 248c0 8.28-6.72 15-15 15h-88c-8.28 0-15-6.72-15-15s6.72-15 15-15h88c8.28 0 15 6.72 15 15z"/></g><path d="m247 248c0 8.28-6.72 15-15 15h-16v-30h16c8.28 0 15 6.72 15 15z" fill="#d8225b"/></g></svg>