<?xml version="1.0"?>
<svg xmlns="http://www.w3.org/2000/svg" id="Capa_1" enable-background="new 0 0 512 512" height="512px" viewBox="0 0 512 512" width="512px"><g><g><g><path d="m504.5 12.12h-497c-4.143 0-7.5 3.358-7.5 7.5v381.84c0 4.142 3.357 7.5 7.5 7.5h190.492v35.51h-22.802c-1.164 0-2.312.271-3.353.791l-20.21 10.1c-2.542 1.27-4.147 3.868-4.147 6.709v30.31c0 4.142 3.357 7.5 7.5 7.5h40.06c4.143 0 7.5-3.358 7.5-7.5s-3.357-7.5-7.5-7.5h-32.56v-18.174l14.479-7.236h158.08l14.479 7.236v18.174h-119.478c-4.143 0-7.5 3.358-7.5 7.5s3.357 7.5 7.5 7.5h126.98c4.143 0 7.5-3.358 7.5-7.5v-30.31c0-2.841-1.605-5.439-4.147-6.709l-20.21-10.1c-1.041-.52-2.188-.791-3.353-.791h-22.802v-35.51h83.412c4.143 0 7.5-3.358 7.5-7.5s-3.357-7.5-7.5-7.5h-382.42v-366.84h482v366.84h-64.58c-4.143 0-7.5 3.358-7.5 7.5s3.357 7.5 7.5 7.5h72.08c4.143 0 7.5-3.358 7.5-7.5v-381.84c0-4.142-3.357-7.5-7.5-7.5zm-205.492 432.35h-86.016v-35.51h86.016z" data-original="#000000" class="active-path" data-old_color="#000000" fill="#FFFFFF"/><path d="m477.65 336.81v-282.84c0-4.142-3.357-7.5-7.5-7.5h-355.83c-4.143 0-7.5 3.358-7.5 7.5s3.357 7.5 7.5 7.5h348.33v267.84h-413.3v-267.84h29.97c4.143 0 7.5-3.358 7.5-7.5s-3.357-7.5-7.5-7.5h-37.47c-4.143 0-7.5 3.358-7.5 7.5v282.84c0 4.142 3.357 7.5 7.5 7.5h428.3c4.143 0 7.5-3.358 7.5-7.5z" data-original="#000000" class="active-path" data-old_color="#000000" fill="#FFFFFF"/><path d="m470.154 361.638h-20.203c-4.143 0-7.5 3.358-7.5 7.5s3.357 7.5 7.5 7.5h20.203c4.143 0 7.5-3.358 7.5-7.5s-3.357-7.5-7.5-7.5z" data-original="#000000" class="active-path" data-old_color="#000000" fill="#FFFFFF"/><path d="m417.626 361.638h-20.203c-4.143 0-7.5 3.358-7.5 7.5s3.357 7.5 7.5 7.5h20.203c4.143 0 7.5-3.358 7.5-7.5s-3.357-7.5-7.5-7.5z" data-original="#000000" class="active-path" data-old_color="#000000" fill="#FFFFFF"/><path d="m344.895 361.638c-4.143 0-7.5 3.358-7.5 7.5s3.357 7.5 7.5 7.5h20.203c4.143 0 7.5-3.358 7.5-7.5s-3.357-7.5-7.5-7.5z" data-original="#000000" class="active-path" data-old_color="#000000" fill="#FFFFFF"/></g></g></g> </svg>
