<svg id="Layer_1" enable-background="new 0 0 512 512" height="512" viewBox="0 0 512 512" width="512" xmlns="http://www.w3.org/2000/svg"><g><path d="m423.04 216.42c-10.47-10.33-24.33-16.02-39.04-16.02-14.85 0-28.81 5.78-39.31 16.29l-32.69 32.68v-193.37c0-30.88-25.12-56-56-56s-56 25.12-56 56v193.37l-32.19-32.19c-10.5-10.5-25.09-16.51-40.05-16.51h-.19c-14.94.05-28.84 5.84-39.15 16.29-10.33 10.47-16.02 24.33-16.02 39.04 0 14.85 5.78 28.81 16.29 39.31l134.78 134.79c8.97 8.97 20.75 13.45 32.53 13.45s23.56-4.48 32.53-13.45l134.29-134.29c10.54-10.54 16.56-25.21 16.51-40.24-.05-14.94-5.84-28.84-16.29-39.15z"/><path d="m496 512h-24c-8.836 0-16-7.164-16-16s7.164-16 16-16h24c8.836 0 16 7.164 16 16s-7.164 16-16 16z"/><path d="m40 512h-24c-8.836 0-16-7.164-16-16s7.164-16 16-16h24c8.836 0 16 7.164 16 16s-7.164 16-16 16z"/><path d="m416 512h-320c-8.836 0-16-7.164-16-16s7.164-16 16-16h320c8.836 0 16 7.164 16 16s-7.164 16-16 16z"/></g></svg>